<?xml version="1.0" encoding="UTF-8" standalone="no"?>
<!DOCTYPE svg PUBLIC "-//W3C//DTD SVG 1.1//EN" "http://www.w3.org/Graphics/SVG/1.1/DTD/svg11.dtd">
<svg width="100%" height="100%" viewBox="0 0 476 3904" version="1.1" xmlns="http://www.w3.org/2000/svg" xmlns:xlink="http://www.w3.org/1999/xlink" xml:space="preserve" xmlns:serif="http://www.serif.com/" style="fill-rule:evenodd;clip-rule:evenodd;stroke-linecap:square;stroke-miterlimit:1.5;">
    <g transform="matrix(1,0,0,1,0.0133283,3897.08)">
        <g transform="matrix(1.10575,-3.46924e-18,3.46924e-18,1.10575,-2957.22,-5124.24)">
            <g>
                <path d="M3101.64,1112.51L3101.64,4636.91L2731.41,4636.91L2731.41,4636.9C2731.11,4636.91 2730.8,4636.91 2730.5,4636.91C2701.03,4636.91 2677.1,4612.98 2677.1,4583.5C2677.1,4554.03 2701.03,4530.1 2730.5,4530.1L2863.55,4530.1C2834.07,4530.1 2810.14,4506.16 2810.14,4476.69C2810.14,4447.21 2834.07,4423.28 2863.55,4423.28L2784.82,4423.28L2784.82,4423.25C2784.21,4423.27 2783.61,4423.28 2783.01,4423.28C2753.53,4423.28 2729.6,4399.35 2729.6,4369.87C2729.6,4340.4 2753.53,4316.47 2783.01,4316.47C2783.61,4316.47 2784.21,4316.48 2784.82,4316.5L2784.82,4316.47L2894.29,4316.47C2864.82,4316.47 2840.89,4292.53 2840.89,4263.06C2840.89,4235.8 2861.35,4213.28 2887.74,4210.05L2731.41,4210.05L2731.41,4210.04C2731.11,4210.05 2730.8,4210.05 2730.5,4210.05C2701.03,4210.05 2677.1,4186.12 2677.1,4156.64C2677.1,4134.64 2690.43,4115.73 2709.45,4107.55C2716.15,4104.52 2723.58,4102.84 2731.41,4102.84L2856.99,4102.84C2830.6,4099.6 2810.14,4077.09 2810.14,4049.83C2810.14,4020.35 2834.07,3996.42 2863.55,3996.42L2784.82,3996.42L2784.82,3996.39C2784.21,3996.41 2783.61,3996.42 2783.01,3996.42C2753.53,3996.42 2729.6,3972.49 2729.6,3943.01C2729.6,3913.54 2753.53,3889.61 2783.01,3889.61C2783.61,3889.61 2784.21,3889.62 2784.82,3889.64L2784.82,3889.61L2894.29,3889.61C2864.82,3889.61 2840.89,3865.67 2840.89,3836.2C2840.89,3806.72 2864.82,3782.79 2894.29,3782.79L2731.41,3782.79C2721.78,3782.79 2712.75,3780.24 2704.95,3775.78C2688.36,3766.71 2677.1,3749.1 2677.1,3728.88C2677.1,3699.4 2701.03,3675.47 2730.5,3675.47C2730.8,3675.47 2731.11,3675.47 2731.41,3675.48L2731.41,3675.47L2863.55,3675.47C2834.07,3675.47 2810.14,3651.54 2810.14,3622.06C2810.14,3592.59 2834.07,3568.66 2863.55,3568.66L2784.82,3568.66L2784.82,3568.62C2784.21,3568.64 2783.61,3568.66 2783.01,3568.66C2753.53,3568.66 2729.6,3544.72 2729.6,3515.25C2729.6,3485.77 2753.53,3461.84 2783.01,3461.84C2783.61,3461.84 2784.21,3461.85 2784.82,3461.87L2784.82,3461.84L2894.29,3461.84C2864.82,3461.84 2840.89,3437.91 2840.89,3408.43C2840.89,3381.17 2861.35,3358.66 2887.74,3355.42L2730.5,3355.42C2701.03,3355.42 2677.1,3331.49 2677.1,3302.02C2677.1,3280.01 2690.43,3261.1 2709.45,3252.93C2716.15,3249.9 2723.58,3248.21 2731.41,3248.21L2856.99,3248.21C2830.6,3244.97 2810.14,3222.46 2810.14,3195.2C2810.14,3165.72 2834.07,3141.79 2863.55,3141.79L2784.82,3141.79L2784.82,3141.76C2784.21,3141.78 2783.61,3141.79 2783.01,3141.79C2753.53,3141.79 2729.6,3117.86 2729.6,3088.39C2729.6,3058.91 2753.53,3034.98 2783.01,3034.98C2783.61,3034.98 2784.21,3034.99 2784.82,3035.01L2784.82,3034.98L2894.29,3034.98C2864.82,3034.98 2840.89,3011.05 2840.89,2981.57C2840.89,2952.1 2864.82,2928.16 2894.29,2928.16L2731.41,2928.16C2729.47,2928.16 2727.55,2928.06 2725.67,2927.86C2698.45,2925.41 2677.1,2902.51 2677.1,2874.67C2677.1,2845.19 2701.03,2821.26 2730.5,2821.26C2730.8,2821.26 2731.11,2821.26 2731.41,2821.27L2731.41,2821.26L2863.55,2821.26C2834.07,2821.26 2810.14,2797.33 2810.14,2767.85C2810.14,2738.38 2834.07,2714.45 2863.55,2714.45L2784.82,2714.45L2784.82,2714.41C2784.21,2714.43 2783.61,2714.45 2783.01,2714.45C2753.53,2714.45 2729.6,2690.51 2729.6,2661.04C2729.6,2631.56 2753.53,2607.63 2783.01,2607.63C2783.61,2607.63 2784.21,2607.64 2784.82,2607.66L2784.82,2607.63L2894.29,2607.63C2864.82,2607.63 2840.89,2583.7 2840.89,2554.22C2840.89,2526.96 2861.35,2504.45 2887.74,2501.21L2730.5,2501.21C2701.03,2501.21 2677.1,2477.28 2677.1,2447.81C2677.1,2425.8 2690.43,2406.89 2709.45,2398.72C2716.15,2395.69 2723.58,2394 2731.41,2394L2856.99,2394C2830.6,2390.76 2810.14,2368.25 2810.14,2340.99C2810.14,2311.51 2834.07,2287.58 2863.55,2287.58L2784.82,2287.58L2784.82,2287.55C2784.21,2287.57 2783.61,2287.58 2783.01,2287.58C2753.53,2287.58 2729.6,2263.65 2729.6,2234.18C2729.6,2204.7 2753.53,2180.77 2783.01,2180.77C2783.61,2180.77 2784.21,2180.78 2784.82,2180.8L2784.82,2180.77L2894.29,2180.77C2864.82,2180.77 2840.89,2156.84 2840.89,2127.36C2840.89,2097.89 2864.82,2073.95 2894.29,2073.95L2731.41,2073.95C2721.78,2073.95 2712.75,2071.4 2704.95,2066.94C2688.36,2057.88 2677.1,2040.26 2677.1,2020.04C2677.1,1990.56 2701.03,1966.63 2730.5,1966.63C2730.8,1966.63 2731.11,1966.64 2731.41,1966.64L2731.41,1966.63L2863.55,1966.63C2834.07,1966.63 2810.14,1942.7 2810.14,1913.23C2810.14,1883.75 2834.07,1859.82 2863.55,1859.82L2784.82,1859.82L2784.82,1859.79C2784.21,1859.81 2783.61,1859.82 2783.01,1859.82C2753.53,1859.82 2729.6,1835.89 2729.6,1806.41C2729.6,1776.93 2753.53,1753 2783.01,1753C2783.61,1753 2784.21,1753.01 2784.82,1753.03L2784.82,1753L2894.29,1753C2864.82,1753 2840.89,1729.07 2840.89,1699.6C2840.89,1672.34 2861.35,1649.82 2887.74,1646.59L2731.41,1646.59L2731.41,1646.58C2731.11,1646.59 2730.8,1646.59 2730.5,1646.59C2701.03,1646.59 2677.1,1622.66 2677.1,1593.18C2677.1,1571.18 2690.43,1552.27 2709.45,1544.09C2716.15,1541.06 2723.58,1539.37 2731.41,1539.37L2856.99,1539.37C2830.6,1536.14 2810.14,1513.62 2810.14,1486.37C2810.14,1456.89 2834.07,1432.96 2863.55,1432.96L2784.82,1432.96L2784.82,1432.93C2784.21,1432.95 2783.61,1432.96 2783.01,1432.96C2753.53,1432.96 2729.6,1409.03 2729.6,1379.55C2729.6,1350.07 2753.53,1326.14 2783.01,1326.14C2783.61,1326.14 2784.21,1326.15 2784.82,1326.17L2784.82,1326.14L2894.29,1326.14C2864.82,1326.14 2840.89,1302.21 2840.89,1272.74C2840.89,1243.26 2864.82,1219.33 2894.29,1219.33L2731.41,1219.33C2701.93,1219.33 2678,1195.4 2678,1165.92C2678,1136.44 2701.93,1112.51 2731.41,1112.51L3101.64,1112.51Z" style="fill:url(#_Linear1);stroke:rgb(11,20,22);stroke-opacity:0;stroke-width:3.01px;"/>
            </g>
        </g>
    </g>
    <defs>
        <linearGradient id="_Linear1" x1="0" y1="0" x2="1" y2="0" gradientUnits="userSpaceOnUse" gradientTransform="matrix(424.547,0,0,424.547,2677.1,2874.71)"><stop offset="0" style="stop-color:rgb(242,94,13);stop-opacity:1"/><stop offset="0.5" style="stop-color:rgb(238,46,81);stop-opacity:1"/><stop offset="1" style="stop-color:rgb(235,6,138);stop-opacity:1"/></linearGradient>
    </defs>
</svg>
